{"accessors" : [{"bufferView" : 0, "byteOffset" : 0, "componentType" : 5123, "count" : 618, "type" : "SCALAR", "max" : [511], "min" : [0]}, {"bufferView" : 1, "byteOffset" : 0, "componentType" : 5126, "count" : 512, "type" : "VEC3", "max" : [0.04925679415464401, 1.7417333126068115, 0.10976935923099518], "min" : [0.011744089424610138, 1.7040506601333618, 0.0888550654053688], "name" : "POSITION"}, {"bufferView" : 1, "byteOffset" : 12, "componentType" : 5126, "count" : 512, "type" : "VEC3", "max" : [0.8956688642501831, 0.9735977649688721, 0.9917049407958984], "min" : [-0.9756580591201782, -0.9119397401809692, -0.9897192120552063], "name" : "NORMAL"}, {"bufferView" : 1, "byteOffset" : 24, "componentType" : 5126, "count" : 512, "type" : "VEC2", "max" : [0.9646214246749878, 0.9818061590194702], "min" : [0.019903719425201416, 0.020990610122680664], "name" : "TEXCOORD_0"}, {"bufferView" : 0, "byteOffset" : 1236, "componentType" : 5123, "count" : 618, "type" : "SCALAR", "max" : [514], "min" : [0]}, {"bufferView" : 2, "byteOffset" : 0, "componentType" : 5126, "count" : 515, "type" : "VEC3", "max" : [-0.011646775528788567, 1.7417734861373901, 0.10976943373680115], "min" : [-0.049025289714336395, 1.704015851020813, 0.0888480693101883], "name" : "POSITION"}, {"bufferView" : 2, "byteOffset" : 12, "componentType" : 5126, "count" : 515, "type" : "VEC3", "max" : [0.8875876665115356, 0.9700244665145874, 0.9916555285453796], "min" : [-0.9772012233734131, -0.8975509405136108, -0.9896489977836609], "name" : "NORMAL"}, {"bufferView" : 2, "byteOffset" : 24, "componentType" : 5126, "count" : 515, "type" : "VEC2", "max" : [0.9585750699043274, 0.966354489326477], "min" : [0.006885886192321777, 0.022762417793273926], "name" : "TEXCOORD_0"}, {"bufferView" : 0, "byteOffset" : 2472, "componentType" : 5123, "count" : 2220, "type" : "SCALAR", "max" : [1785], "min" : [0]}, {"bufferView" : 3, "byteOffset" : 0, "componentType" : 5126, "count" : 1786, "type" : "VEC3", "max" : [0.04368656501173973, 1.682976245880127, 0.15013964474201202], "min" : [-0.044194117188453674, 1.5755882263183594, 0.10368974506855011], "name" : "POSITION"}, {"bufferView" : 3, "byteOffset" : 12, "componentType" : 5126, "count" : 1786, "type" : "VEC3", "max" : [0.9923025369644165, 0.9757522940635681, 0.9994716048240662], "min" : [-0.9989966154098511, -0.9891416430473328, -0.9996024966239929], "name" : "NORMAL"}, {"bufferView" : 3, "byteOffset" : 24, "componentType" : 5126, "count" : 1786, "type" : "VEC2", "max" : [0.9909243583679199, 0.9839872717857361], "min" : [0.020076757296919823, 0.010367155075073242], "name" : "TEXCOORD_0"}, {"bufferView" : 0, "byteOffset" : 6912, "componentType" : 5123, "count" : 4791, "type" : "SCALAR", "max" : [4040], "min" : [0]}, {"bufferView" : 4, "byteOffset" : 0, "componentType" : 5126, "count" : 4041, "type" : "VEC3", "max" : [0.1562923789024353, 1.8621684312820435, 0.14224852621555328], "min" : [-0.1543004959821701, 1.582829475402832, -0.15792971849441528], "name" : "POSITION"}, {"bufferView" : 4, "byteOffset" : 12, "componentType" : 5126, "count" : 4041, "type" : "VEC3", "max" : [0.9972724914550781, 0.9992470145225525, 0.9997211694717407], "min" : [-0.9995298981666565, -0.9977483749389648, -0.9996638894081116], "name" : "NORMAL"}, {"bufferView" : 4, "byteOffset" : 24, "componentType" : 5126, "count" : 4041, "type" : "VEC2", "max" : [0.9934735298156738, 0.9994999766349792], "min" : [0.0005000089877285063, 0.0004999637603759766], "name" : "TEXCOORD_0"}, {"bufferView" : 0, "byteOffset" : 16496, "componentType" : 5123, "count" : 12282, "type" : "SCALAR", "max" : [9712], "min" : [0]}, {"bufferView" : 5, "byteOffset" : 0, "componentType" : 5126, "count" : 9713, "type" : "VEC3", "max" : [0.0957942008972168, 1.8326746225357056, 0.1436438411474228], "min" : [-0.09610742330551147, 1.5201963186264038, -0.08721746504306793], "name" : "POSITION"}, {"bufferView" : 5, "byteOffset" : 12, "componentType" : 5126, "count" : 9713, "type" : "VEC3", "max" : [0.9992196559906006, 0.9999550580978394, 0.9999867081642151], "min" : [-0.9991285800933838, -0.9995205402374268, -0.9999920129776001], "name" : "NORMAL"}, {"bufferView" : 5, "byteOffset" : 24, "componentType" : 5126, "count" : 9713, "type" : "VEC2", "max" : [0.9943000078201294, 0.9807000160217285], "min" : [0.004999999888241291, 0.004350006580352783], "name" : "TEXCOORD_0"}, {"bufferView" : 0, "byteOffset" : 41060, "componentType" : 5123, "count" : 300, "type" : "SCALAR", "max" : [238], "min" : [0]}, {"bufferView" : 6, "byteOffset" : 0, "componentType" : 5126, "count" : 239, "type" : "VEC3", "max" : [0.0285726860165596, 1.6723315715789795, 0.12403955310583115], "min" : [-0.028572916984558105, 1.635079026222229, 0.055524177849292755], "name" : "POSITION"}, {"bufferView" : 6, "byteOffset" : 12, "componentType" : 5126, "count" : 239, "type" : "VEC3", "max" : [0.9971963167190552, 0.8749926686286926, 0.9982417821884155], "min" : [-0.9971963167190552, -0.9877314567565918, -0.7574896812438965], "name" : "NORMAL"}, {"bufferView" : 6, "byteOffset" : 24, "componentType" : 5126, "count" : 239, "type" : "VEC2", "max" : [0.9808249473571777, 0.983213484287262], "min" : [0.051069796085357666, 0.02829587459564209], "name" : "TEXCOORD_0"}], "asset" : {"generator" : "Aspose.3D 23.6.0", "version" : "2.0"}, "buffers" : [{"uri" : "data:application/octet-stream;base64,", "byteLength" : 708216}], "bufferViews" : [{"buffer" : 0, "byteOffset" : 0, "byteLength" : 41660, "target" : 34963}, {"buffer" : 0, "byteOffset" : 41664, "byteLength" : 19776, "byteStride" : 32, "target" : 34962}, {"buffer" : 0, "byteOffset" : 61444, "byteLength" : 19776, "byteStride" : 32, "target" : 34962}, {"buffer" : 0, "byteOffset" : 81224, "byteLength" : 71040, "byteStride" : 32, "target" : 34962}, {"buffer" : 0, "byteOffset" : 152268, "byteLength" : 153312, "byteStride" : 32, "target" : 34962}, {"buffer" : 0, "byteOffset" : 305584, "byteLength" : 393024, "byteStride" : 32, "target" : 34962}, {"buffer" : 0, "byteOffset" : 698612, "byteLength" : 9600, "byteStride" : 32, "target" : 34962}], "images" : [{"uri" : "data:image/jpeg;base64,"}, {"uri" : "data:image/png;base64,"}, {"uri" : "data:image/jpeg;base64,"}, {"uri" : "data:image/png;base64,"}, {"uri" : "data:image/jpeg;base64,"}, {"uri" : "data:image/jpeg;base64,"}, {"uri" : "data:image/jpeg;base64,"}], "materials" : [{"name" : "Wolf3D_Eye", "pbrMetallicRoughness" : {"baseColorFactor" : [1, 1, 1, 1], "baseColorTexture" : {"index" : 0, "texCoord" : 0}, "metallicFactor" : 0, "roughnessFactor" : 1}, "emissiveFactor" : [0, 0, 0], "alphaMode" : "OPAQUE", "doubleSided" : true}, {"name" : "Wolf3D_Eye", "pbrMetallicRoughness" : {"baseColorFactor" : [1, 1, 1, 1], "baseColorTexture" : {"index" : 0, "texCoord" : 0}, "metallicFactor" : 0, "roughnessFactor" : 1}, "emissiveFactor" : [0, 0, 0], "alphaMode" : "OPAQUE", "doubleSided" : true}, {"name" : "Wolf3D_Beard", "pbrMetallicRoughness" : {"baseColorFactor" : [1, 1, 1, 1], "baseColorTexture" : {"index" : 2, "texCoord" : 0}, "metallicFactor" : 0.12727272510528564, "roughnessFactor" : 0.531818151473999}, "normalTexture" : {"index" : 1, "texCoord" : 0, "scale" : 1}, "emissiveFactor" : [0, 0, 0], "alphaMode" : "OPAQUE", "doubleSided" : false}, {"name" : "Wolf3D_Hair", "pbrMetallicRoughness" : {"baseColorFactor" : [1, 1, 1, 1], "baseColorTexture" : {"index" : 4, "texCoord" : 0}, "metallicFactor" : 0, "roughnessFactor" : 0.858578622341156}, "normalTexture" : {"index" : 3, "texCoord" : 0, "scale" : 1}, "emissiveFactor" : [0, 0, 0], "alphaMode" : "OPAQUE", "doubleSided" : true}, {"name" : "Wolf3D_Skin", "pbrMetallicRoughness" : {"baseColorFactor" : [1, 1, 1, 1], "baseColorTexture" : {"index" : 5, "texCoord" : 0}, "metallicFactor" : 0, "roughnessFactor" : 0.699999988079071}, "emissiveFactor" : [0, 0, 0], "alphaMode" : "OPAQUE", "doubleSided" : true}, {"name" : "Wolf3D_Teeth", "pbrMetallicRoughness" : {"baseColorFactor" : [1, 1, 1, 1], "baseColorTexture" : {"index" : 6, "texCoord" : 0}, "metallicFactor" : 0, "roughnessFactor" : 1}, "emissiveFactor" : [0, 0, 0], "alphaMode" : "OPAQUE", "doubleSided" : true}], "meshes" : [{"primitives" : [{"attributes" : {"POSITION" : 1, "NORMAL" : 2, "TEXCOORD_0" : 3}, "indices" : 0, "material" : 0, "mode" : 4}]}, {"primitives" : [{"attributes" : {"POSITION" : 5, "NORMAL" : 6, "TEXCOORD_0" : 7}, "indices" : 4, "material" : 1, "mode" : 4}]}, {"primitives" : [{"attributes" : {"POSITION" : 9, "NORMAL" : 10, "TEXCOORD_0" : 11}, "indices" : 8, "material" : 2, "mode" : 4}]}, {"primitives" : [{"attributes" : {"POSITION" : 13, "NORMAL" : 14, "TEXCOORD_0" : 15}, "indices" : 12, "material" : 3, "mode" : 4}]}, {"primitives" : [{"attributes" : {"POSITION" : 17, "NORMAL" : 18, "TEXCOORD_0" : 19}, "indices" : 16, "material" : 4, "mode" : 4}]}, {"primitives" : [{"attributes" : {"POSITION" : 21, "NORMAL" : 22, "TEXCOORD_0" : 23}, "indices" : 20, "material" : 5, "mode" : 4}]}], "nodes" : [{"matrix" : [1.4731180667877197, 0, 0, 0, 0, 1.4731180667877197, 0, 0, 0, 0, 1.4731180667877197, 0, 0.021936114877462387, -2.344771146774292, 0.0618567019701004, 1], "mesh" : 0, "name" : "EyeLeft"}, {"matrix" : [1.4731180667877197, 0, 0, 0, 0, 1.4731180667877197, 0, 0, 0, 0, 1.4731180667877197, 0, 0.021936114877462387, -2.344771146774292, 0.0618567019701004, 1], "mesh" : 1, "name" : "EyeRight"}, {"matrix" : [1.4731180667877197, 0, 0, 0, 0, 1.4731180667877197, 0, 0, 0, 0, 1.4731180667877197, 0, 0.021936114877462387, -2.344771146774292, 0.0618567019701004, 1], "mesh" : 2, "name" : "Wolf3D_Beard"}, {"matrix" : [1.4731180667877197, 0, 0, 0, 0, 1.4731180667877197, 0, 0, 0, 0, 1.4731180667877197, 0, 0.021936114877462387, -2.344771146774292, 0.0618567019701004, 1], "mesh" : 3, "name" : "Wolf3D_Hair"}, {"matrix" : [1.4731180667877197, 0, 0, 0, 0, 1.4731180667877197, 0, 0, 0, 0, 1.4731180667877197, 0, 0.021936114877462387, -2.344771146774292, 0.0618567019701004, 1], "mesh" : 4, "name" : "Wolf3D_Head"}, {"matrix" : [1.4731180667877197, 0, 0, 0, 0, 1.4731180667877197, 0, 0, 0, 0, 1.4731180667877197, 0, 0.021936114877462387, -2.344771146774292, 0.0618567019701004, 1], "mesh" : 5, "name" : "Wolf3D_Teeth"}], "samplers" : [{"magFilter" : 9729, "minFilter" : 9987, "wrapS" : 10497, "wrapT" : 10497}, {"magFilter" : 9729, "minFilter" : 9987, "wrapS" : 10497, "wrapT" : 10497}, {"magFilter" : 9729, "minFilter" : 9987, "wrapS" : 10497, "wrapT" : 10497}, {"magFilter" : 9729, "minFilter" : 9987, "wrapS" : 10497, "wrapT" : 10497}, {"magFilter" : 9729, "minFilter" : 9987, "wrapS" : 10497, "wrapT" : 10497}, {"magFilter" : 9729, "minFilter" : 9987, "wrapS" : 10497, "wrapT" : 10497}, {"magFilter" : 9729, "minFilter" : 9987, "wrapS" : 10497, "wrapT" : 10497}], "scene" : 0, "scenes" : [{"nodes" : [0, 1, 2, 3, 4, 5]}], "textures" : [{"sampler" : 0, "source" : 0, "name" : ""}, {"sampler" : 1, "source" : 1, "name" : ""}, {"sampler" : 2, "source" : 2, "name" : ""}, {"sampler" : 3, "source" : 3, "name" : ""}, {"sampler" : 4, "source" : 4, "name" : ""}, {"sampler" : 5, "source" : 5, "name" : ""}, {"sampler" : 6, "source" : 6, "name" : ""}]}